<?xml version="1.0" standalone="no"?>
<!DOCTYPE svg PUBLIC "-//W3C//DTD SVG 20010904//EN"
 "http://www.w3.org/TR/2001/REC-SVG-20010904/DTD/svg10.dtd">
<svg version="1.0" xmlns="http://www.w3.org/2000/svg"
 width="198.837722pt" height="135.536608pt" viewBox="0 0 198.837722 135.536608"
 preserveAspectRatio="xMidYMid meet">
<metadata>
Created by potrace 1.12, written by Peter Selinger 2001-2015
</metadata>
<g transform="translate(-16.005290,154.968315) scale(0.100000,-0.100000)"
fill="#000000" stroke="none">
<path d="M990 1514 c-12 -37 -8 -263 6 -331 6 -30 4 -33 -43 -56 -48 -25 -103
-72 -103 -88 0 -14 7 -11 42 22 34 32 107 74 114 66 5 -4 15 -152 34 -477 5
-102 13 -206 16 -232 l6 -48 -64 0 c-46 0 -72 6 -96 20 -59 36 -78 120 -46
200 23 57 11 60 -21 5 -35 -58 -38 -132 -9 -172 42 -56 69 -68 154 -68 l79 0
6 -55 c14 -126 23 -140 24 -38 l1 96 49 17 c159 53 303 197 351 353 24 76 26
217 6 275 -48 134 -181 200 -361 178 l-61 -7 4 91 c4 94 -10 216 -30 260 -17
37 -44 32 -58 -11z m45 -26 c10 -34 19 -262 11 -294 -10 -39 -23 -19 -35 56
-18 109 -13 260 9 260 4 0 11 -10 15 -22z m285 -351 c52 -27 105 -91 120 -145
15 -54 12 -169 -5 -236 -39 -149 -144 -285 -268 -346 -37 -18 -69 -31 -71 -29
-7 7 -29 760 -22 766 29 29 182 23 246 -10z"/>
<path d="M392 1157 c-109 -41 -177 -176 -142 -281 22 -67 65 -103 209 -176 75
-37 148 -81 163 -97 94 -99 43 -236 -106 -283 -58 -18 -182 -8 -239 19 -92 44
-119 132 -63 205 29 38 28 58 -2 40 -26 -16 -52 -75 -52 -119 0 -136 195 -221
381 -166 122 37 203 170 170 280 -21 71 -61 105 -215 181 -173 87 -216 126
-216 195 0 56 19 102 56 137 39 36 74 48 145 48 119 0 175 -51 164 -148 -3
-30 -12 -67 -21 -84 -11 -21 -13 -33 -5 -41 18 -18 51 70 51 138 0 74 -22 114
-76 140 -47 23 -156 29 -202 12z"/>
<path d="M1822 1157 c-153 -58 -202 -265 -86 -367 20 -17 92 -59 162 -94 70
-35 139 -77 154 -93 91 -96 47 -229 -93 -278 -53 -19 -165 -19 -218 0 -123 43
-164 142 -94 225 26 32 24 52 -4 34 -27 -17 -53 -76 -53 -119 0 -137 194 -221
381 -166 123 37 203 170 170 283 -20 66 -78 114 -232 189 -161 80 -199 115
-199 185 0 55 19 101 56 136 39 36 74 48 145 48 140 0 195 -74 151 -205 -12
-33 -17 -64 -12 -69 16 -16 43 58 47 129 5 84 -13 121 -73 150 -47 23 -156 29
-202 12z"/>
</g>
</svg>
